<svg xmlns="http://www.w3.org/2000/svg" xmlns:xlink="http://www.w3.org/1999/xlink" viewBox="0 0 508.028 875.01"><defs><mask id="mask" x="-19.212" y="-199.827" width="584.303" height="1136.098" maskUnits="userSpaceOnUse"><path d="M24.788,358.165q0-93.986,67-145,66.984-51,163-51a310.355,310.355,0,0,1,61,6q-25.008-27.985-25-68,0-39.986,27.5-69,27.492-28.993,67-29,39.492,0,65.5,23,25.992,23.015,26,59t-21,58.5q-21,22.5-52.5,22.5t-52-18.5q-20.508-18.493-20.5-47.5t20-46q15-6.985,15-16t-9-9q-6,0-15,6-33,25.006-33,67,0,53.015,61,84,114.984,50.015,115,173,0,94.007-67,145t-163,51q-66,0-118-23-64.008,27-64,56,0,20.015,16,26.5,15.984,6.515,55,6.5,39,0,124.5-20t112.5-20q57.984,0,92,30,33.984,30,34,79,0,76.992-65,131t-156,54q-108,0-176-85-49.008-4.008-79-37t-30-79.5q0-46.5,30.5-87.5t85.5-65Q24.772,468.179,24.788,358.165Zm350,393q-28.008,0-118,18t-122,20q55.992,66.984,151,67,51.984,0,97.5-20.5,45.492-20.508,45.5-47.5Q428.788,751.157,374.788,751.165Zm-142.5-221.5q9.492,6.515,22.5,6.5,12.984,0,22.5-6.5,9.492-6.493,15-21a275.132,275.132,0,0,0,9-28q3.492-13.5,4.5-38.5.984-24.986,1.5-40,.492-15,.5-44t-.5-44q-.516-15-1.5-40-1.008-24.986-4.5-38.5a276.255,276.255,0,0,0-9-28q-5.508-14.485-15-21-9.516-6.493-22.5-6.5-13.008,0-22.5,6.5-9.516,6.515-15,21a268.427,268.427,0,0,0-9,28q-3.516,13.5-4.5,38.5-1.008,25.007-1.5,40-.516,15-.5,44,0,29.014.5,44t1.5,40q.984,25.007,4.5,38.5a267.368,267.368,0,0,0,9,28Q222.772,523.172,232.288,529.665Z" style="fill:#fff"/></mask><linearGradient id="linear-gradient" x1="602.964" y1="789.646" x2="-102.75" y2="83.931" gradientUnits="userSpaceOnUse"><stop offset="0" stop-color="#52492b"/><stop offset="1" stop-color="#273442"/></linearGradient></defs><title>2Route copy</title><g id="logo"><g style="mask:url(#mask)"><rect x="-10.88" y="-7.939" width="521.974" height="889.456" style="fill:url(#linear-gradient)"/></g></g></svg>